<svg width="274" height="107" viewBox="0 0 274 107" fill="none" xmlns="http://www.w3.org/2000/svg">
<g clip-path="url(#clip0_1_49)">
<path d="M5.39657 63.3959C3.95806 62.4807 2.85861 61.1015 2.09492 59.2548C1.32794 57.4081 0.955972 55.1138 0.975722 52.3684C0.995473 49.6264 1.50899 46.4268 2.51627 42.7696C3.52355 39.1125 4.77442 35.9491 6.26559 33.2828C7.75676 30.6164 9.37302 28.4142 11.1078 26.6762C12.8425 24.9381 14.6794 23.6543 16.6215 22.8149C18.5603 21.9755 20.4827 21.5542 22.3854 21.5542C24.288 21.5542 25.9668 21.9657 27.4218 22.7853C28.8767 23.6083 30.0058 24.8756 30.809 26.5906C31.6122 28.3089 32.0138 30.5078 32.0138 33.1972C32.0138 35.8866 31.5102 39.0763 30.5029 42.7696C29.4594 46.4268 28.1888 49.6264 26.6976 52.3684C25.2031 55.1105 23.5638 57.4048 21.7731 59.2548C19.9824 61.1015 18.116 62.484 16.1771 63.3959C14.235 64.311 12.3159 64.7685 10.4132 64.7685C8.51058 64.7685 6.83836 64.311 5.40315 63.3959H5.39657ZM6.43347 50.8279C5.98579 53.3658 5.80804 55.5845 5.90021 57.4904C5.99238 59.3931 6.4236 60.904 7.18729 62.0232C7.95098 63.1424 9.13602 63.702 10.7424 63.702C12.3488 63.702 13.7741 63.1325 15.1369 61.9936C16.4997 60.8546 17.7572 59.3338 18.9159 57.4312C20.0713 55.5285 21.1345 53.3099 22.1056 50.7686C23.0766 48.2307 23.9523 45.5644 24.7357 42.7631C25.5191 39.9288 26.115 37.2888 26.5264 34.8431C26.9379 32.4006 27.0761 30.2642 26.9478 28.434C26.8161 26.6071 26.3684 25.1784 25.6047 24.1514C24.8377 23.1244 23.656 22.6109 22.0496 22.6109C20.4432 22.6109 19.0278 23.1342 17.6847 24.1777C16.3417 25.2212 15.1007 26.6597 13.9617 28.4867C12.8228 30.3169 11.7859 32.4532 10.8543 34.8957C9.92275 37.3415 9.06359 39.9618 8.28015 42.7598C7.49671 45.5973 6.88115 48.2834 6.43347 50.8213V50.8279Z" fill="#FAF5F3"/>
<path d="M54.6692 62.2468C55.6962 62.2106 56.6179 62.1645 57.4408 62.1085C58.2605 62.0526 58.9616 61.9867 59.541 61.911C60.1203 61.8353 60.5384 61.7234 60.8017 61.5753C61.0256 61.4271 61.3054 60.986 61.6411 60.2586C61.9769 59.5311 62.2929 58.7279 62.5924 57.8523C62.892 56.9767 63.152 56.1438 63.3759 55.3604C63.5997 54.577 63.7479 54.0536 63.8236 53.7935L64.8868 54.2412C64.8506 54.837 64.7946 55.5579 64.7189 56.3973C64.6432 57.2367 64.551 58.1156 64.4391 59.0274C64.3272 59.9425 64.235 60.8478 64.1593 61.7431C64.0836 62.6385 64.0474 63.4219 64.0474 64.0935L49.1028 64.0375H40.7614V63.0862C41.0972 63.0862 41.4889 63.0401 41.9366 62.9479C42.3843 62.8558 42.7003 62.6583 42.8879 62.3587C43.1875 61.911 43.4113 61.0058 43.5594 59.643C43.7076 58.2802 43.803 56.687 43.8392 54.8568C43.8755 53.0298 43.8853 51.0712 43.8656 48.981C43.8458 46.8907 43.8392 44.8761 43.8392 42.934C43.8392 42.4501 43.8491 41.6831 43.8656 40.6396C43.8853 39.5961 43.8919 38.4111 43.8919 37.0845C43.8919 35.7579 43.882 34.3787 43.8656 32.9435C43.8458 31.5083 43.7997 30.1553 43.7273 28.8847C43.6516 27.6174 43.5496 26.5048 43.4179 25.5535C43.2862 24.6021 43.1118 23.9569 42.8846 23.6212C42.697 23.3216 42.381 23.1274 41.9333 23.032C41.4856 22.9398 41.0939 22.8937 40.7581 22.8937V21.9424H52.1773V22.8937C51.8415 22.8937 51.4498 22.9398 51.0021 23.032C50.5544 23.1274 50.2352 23.3216 50.0508 23.6212C49.827 23.9207 49.6492 24.5363 49.5175 25.4679C49.3859 26.3994 49.274 27.5022 49.1818 28.7695C49.0896 30.0401 49.0238 31.3996 48.9876 32.8546C48.9514 34.3096 48.9119 35.702 48.8756 37.0253C48.8394 38.3518 48.8197 39.527 48.8197 40.5507V42.7628C48.8197 44.6655 48.8394 46.5418 48.8756 48.3884C48.9119 50.2351 48.9678 51.9699 49.0435 53.5927C49.1192 55.2156 49.2114 56.6705 49.3233 57.9576C49.4352 59.2447 49.5472 60.2816 49.6591 61.065C49.7348 61.437 49.929 61.7464 50.2483 61.99C50.5643 62.2336 50.9462 62.3521 51.3971 62.3521C52.5526 62.3159 53.6454 62.2764 54.6724 62.2402L54.6692 62.2468Z" fill="#FAF5F3"/>
<path d="M82.8236 38.4013C82.6196 37.5817 82.3003 36.8443 81.8723 36.1892C81.4444 35.5375 80.8914 35.0141 80.2199 34.6224C79.5483 34.2306 78.7089 34.0726 77.7017 34.1451C76.3586 34.2208 75.2954 34.7804 74.5119 35.8239C73.7285 36.8706 73.1491 38.1182 72.7772 39.5732C72.4052 41.0281 72.1715 42.5489 72.076 44.1356C71.9838 45.7222 71.9378 47.0554 71.9378 48.1384C71.9378 50.0805 72.0859 51.9272 72.3854 53.6784C72.685 55.4329 73.1689 56.9636 73.8404 58.2671C74.5119 59.574 75.3513 60.5714 76.3586 61.2626C77.3659 61.9539 78.541 62.2436 79.8841 62.1317C80.8914 62.0197 81.8164 61.7103 82.6558 61.2067C83.4952 60.703 84.2325 60.0973 84.8678 59.3863C85.5031 58.6786 86.0167 57.8853 86.4084 57.0064C86.8001 56.1308 87.07 55.2815 87.2214 54.4585L88.5085 54.6824C88.4328 55.4658 88.1826 56.427 87.7547 57.566C87.3268 58.7049 86.7079 59.8044 85.908 60.8676C85.1048 61.9309 84.0778 62.8723 82.8302 63.6952C81.5794 64.5149 80.0783 64.9626 78.3238 65.0383C76.4212 65.1502 74.7226 64.8046 73.2314 64.0014C71.737 63.1982 70.4795 62.0329 69.4525 60.5022C68.4255 58.9716 67.642 57.1545 67.1022 55.0445C66.5623 52.9378 66.2891 50.6335 66.2891 48.1318C66.2891 45.8177 66.559 43.7109 67.1022 41.8083C67.642 39.9056 68.409 38.2631 69.3965 36.8838C70.3841 35.5046 71.579 34.4314 72.978 33.6645C74.377 32.9008 75.9537 32.5156 77.7082 32.5156C79.127 32.5156 80.47 32.7197 81.7374 33.1312C83.0047 33.5427 84.1239 34.178 85.095 35.0338C86.066 35.893 86.8594 36.9661 87.4749 38.2532C88.0905 39.5403 88.4723 41.0446 88.6237 42.7596C88.6599 43.0954 88.5777 43.4213 88.3736 43.7406C88.1695 44.0566 87.8963 44.2179 87.5605 44.2179H71.105L71.2169 42.7069H81.4608C82.0567 42.7069 82.5241 42.5292 82.8599 42.1737C83.1956 41.8182 83.3437 41.3606 83.3075 40.801C83.1956 40.0176 83.0376 39.2144 82.8302 38.3947L82.8236 38.4013Z" fill="#FAF5F3"/>
<path d="M88.841 34.8758C89.4006 34.8396 90.0622 34.7375 90.8292 34.5696C91.5929 34.4018 92.3698 34.2339 93.1532 34.066C93.9367 33.8981 94.7201 33.7599 95.5035 33.6446C96.287 33.5327 97.0145 33.4768 97.686 33.4768L97.5741 51.4992V53.9055C97.5741 54.9523 97.5938 56.032 97.63 57.1512C97.6662 58.2704 97.7419 59.3073 97.8539 60.2586C97.9658 61.2099 98.1534 61.9111 98.4135 62.3587C98.5254 62.6188 98.8052 62.8064 99.2529 62.9183C99.7005 63.0303 100.112 63.0862 100.484 63.0862V64.0375H89.6244V63.0862C89.9964 63.0862 90.398 63.0303 90.8292 62.9183C91.2572 62.8064 91.5468 62.6188 91.6983 62.3587C91.9221 61.9111 92.09 61.2099 92.2019 60.2586C92.3138 59.3073 92.3994 58.2704 92.4554 57.1512C92.5113 56.032 92.5376 54.9588 92.5376 53.9318V46.5978C92.5376 45.0111 92.5113 43.5463 92.4554 42.2032C92.3994 40.8602 92.3072 39.6752 92.1756 38.6481C92.0439 37.6211 91.8497 36.8278 91.5863 36.2682C91.4382 36.0081 91.2308 35.8666 90.9708 35.8468C90.7107 35.8271 90.4375 35.837 90.1577 35.8732C89.8779 35.9094 89.5882 35.9588 89.2887 36.0147C88.9891 36.0707 88.7093 36.0608 88.4493 35.9884L88.841 34.8692V34.8758ZM91.7509 24.5199C92.3862 23.9241 93.1861 23.6245 94.1572 23.6245C95.1283 23.6245 95.938 23.9241 96.5931 24.5199C97.2449 25.1157 97.5741 25.8465 97.5741 26.7023C97.5741 27.5582 97.2482 28.3087 96.5931 28.9407C95.9413 29.576 95.1283 29.892 94.1572 29.892C93.1861 29.892 92.3829 29.576 91.7509 28.9407C91.1156 28.3054 90.7996 27.5615 90.7996 26.7023C90.7996 25.8432 91.1156 25.1157 91.7509 24.5199Z" fill="#FAF5F3"/>
<path d="M100.148 33.8125C100.895 33.8125 101.725 33.6446 102.64 33.3089C103.555 32.9731 104.421 32.4793 105.244 31.8243C106.064 31.1725 106.791 30.3594 107.426 29.3884C108.062 28.4173 108.47 27.3178 108.657 26.0867L109.777 26.0308L109.665 33.6446V35.2675C109.629 37.1701 109.599 39.0102 109.579 40.7812C109.559 42.5554 109.543 44.3067 109.523 46.0414C109.503 47.7762 109.497 49.5406 109.497 51.3313C109.497 53.122 109.517 54.9687 109.553 56.8713C109.589 59.6693 110.178 61.3778 111.317 61.9933C112.456 62.6089 113.921 62.1151 115.712 60.5087L115.936 62.2995C115.004 63.1948 113.901 63.8598 112.634 64.2877C111.367 64.7156 110.152 64.8473 108.996 64.6794C107.841 64.5115 106.84 64.0079 106.001 63.1685C105.162 62.3291 104.724 61.1441 104.684 59.6134C104.648 58.7542 104.628 57.635 104.628 56.2558C104.628 54.8765 104.618 53.3821 104.602 51.779C104.582 50.1759 104.566 48.5135 104.546 46.7985C104.526 45.0835 104.49 43.487 104.434 42.0123C104.378 40.5376 104.312 39.2505 104.237 38.151C104.161 37.0516 104.049 36.2945 103.901 35.883C103.601 35.5111 103.098 35.3234 102.39 35.3234C101.682 35.3234 100.951 35.3037 100.207 35.2675L100.152 33.8125H100.148ZM108.822 33.7565L114.925 33.8125L114.869 35.2675H108.825V33.7565H108.822Z" fill="#FAF5F3"/>
<path d="M132.417 33.5031C133.892 34.2306 135.159 35.2873 136.223 36.6665C137.286 38.0491 138.125 39.7279 138.741 41.7029C139.356 43.6813 139.666 45.9197 139.666 48.4214C139.666 50.9232 139.356 53.1879 138.741 55.2222C138.125 57.2565 137.286 59.0012 136.223 60.4561C135.159 61.9111 133.889 63.0402 132.417 63.8434C130.943 64.6466 129.33 65.0482 127.575 65.0482C125.821 65.0482 124.152 64.6466 122.677 63.8434C121.202 63.0402 119.925 61.9111 118.842 60.4561C117.759 59.0012 116.93 57.2565 116.35 55.2222C115.771 53.1879 115.481 50.9232 115.481 48.4214C115.481 45.9197 115.771 43.7373 116.35 41.7589C116.93 39.7806 117.749 38.1017 118.813 36.7225C119.876 35.3432 121.153 34.28 122.647 33.5328C124.139 32.7855 125.781 32.4136 127.572 32.4136C129.363 32.4136 130.939 32.7757 132.414 33.5064L132.417 33.5031ZM133.566 43.046C133.418 41.2915 133.119 39.7246 132.671 38.3453C132.223 36.9661 131.588 35.8633 130.768 35.0437C129.945 34.224 128.882 33.8126 127.579 33.8126C126.196 33.8126 125.097 34.2339 124.277 35.0733C123.454 35.9127 122.832 37.0221 122.401 38.4046C121.973 39.7871 121.683 41.3441 121.532 43.0789C121.38 44.8137 121.308 46.5978 121.308 48.4247C121.308 50.2517 121.383 52.1378 121.532 53.9648C121.68 55.795 121.969 57.4277 122.401 58.8629C122.828 60.3014 123.454 61.4667 124.277 62.3621C125.097 63.2574 126.199 63.7051 127.579 63.7051C128.885 63.7051 129.949 63.2574 130.768 62.3621C131.588 61.4667 132.223 60.2916 132.671 58.8366C133.119 57.3816 133.418 55.739 133.566 53.9121C133.714 52.0852 133.79 50.255 133.79 48.428C133.79 46.6011 133.714 44.8104 133.566 43.0559V43.046Z" fill="#FAF5F3"/>
<path d="M139.666 34.932C140.225 34.8563 140.887 34.7444 141.654 34.5963C142.418 34.4481 143.195 34.2868 143.978 34.1189C144.762 33.9511 145.545 33.8029 146.328 33.6713C147.112 33.5396 147.839 33.4771 148.511 33.4771L148.343 51.4995V53.9058C148.343 54.9525 148.363 56.0322 148.399 57.1514C148.435 58.2706 148.511 59.3075 148.623 60.2589C148.735 61.2102 148.922 61.9113 149.182 62.359C149.294 62.6191 149.574 62.8067 150.022 62.9186C150.469 63.0305 150.881 63.0865 151.253 63.0865V64.0378H140.505V63.0865C140.877 63.0865 141.259 63.0305 141.654 62.9186C142.046 62.8067 142.316 62.6191 142.467 62.359C142.691 61.9113 142.859 61.2102 142.971 60.2589C143.083 59.3075 143.168 58.2706 143.224 57.1514C143.28 56.0322 143.307 54.9591 143.307 53.9321V51.4962C143.307 49.8174 143.316 48.1847 143.333 46.598C143.353 45.0114 143.333 43.5466 143.277 42.2035C143.221 40.8605 143.129 39.6754 142.997 38.6484C142.865 37.6214 142.671 36.8281 142.408 36.2685C142.26 36.0446 142.052 35.913 141.792 35.8767C141.532 35.8405 141.259 35.8504 140.979 35.9064C140.7 35.9623 140.41 36.0084 140.11 36.0446C139.811 36.0808 139.531 36.0644 139.271 35.9887L139.663 34.9254L139.666 34.932ZM161.721 38.204C161.573 38.7834 161.293 39.287 160.881 39.7149C160.47 40.1429 159.986 40.4326 159.426 40.584C158.867 40.7321 158.324 40.6959 157.804 40.4721C157.28 39.9882 156.862 39.4845 156.543 38.9611C156.227 38.4377 155.954 37.9637 155.73 37.5325C155.506 37.1046 155.282 36.7491 155.058 36.4693C154.834 36.1895 154.535 36.0315 154.163 35.992C153.528 35.9557 152.876 36.2816 152.204 36.9729C151.533 37.6642 150.917 38.6451 150.358 39.9125C149.798 41.1798 149.331 42.7039 148.959 44.4748C148.587 46.2491 148.399 48.2176 148.399 50.3803L147.839 45.3439C147.876 44.3004 148.063 43.0857 148.399 41.7065C148.735 40.3272 149.238 39.0006 149.91 37.7333C150.581 36.466 151.421 35.3929 152.428 34.514C153.435 33.6383 154.666 33.161 156.121 33.0853C157.277 33.0096 158.35 33.2631 159.341 33.8424C160.328 34.4218 161.066 35.2711 161.553 36.3903C161.813 37.0256 161.869 37.6313 161.721 38.2106V38.204Z" fill="#FAF5F3"/>
<path d="M164.277 64.3147C164.576 64.3147 164.958 64.2687 165.425 64.1765C165.893 64.0843 166.255 63.8868 166.518 63.5872C166.93 63.1396 167.387 62.2245 167.891 60.8452C168.395 59.466 168.928 57.8596 169.487 56.0326C170.047 54.2057 170.616 52.2372 171.196 50.1272C171.775 48.0205 172.325 45.9961 172.848 44.0539C173.332 42.3389 173.865 40.4428 174.445 38.3723C175.024 36.3018 175.554 34.3136 176.041 32.4109C176.525 30.5083 176.91 28.8295 177.19 27.3745C177.47 25.9196 177.536 24.9682 177.384 24.5206C177.272 24.221 177.012 24.0268 176.601 23.9313C176.189 23.8392 175.834 23.7898 175.538 23.7898L175.706 23.0063H186.733L186.453 23.7898C186.117 23.7898 185.736 23.8359 185.304 23.9313C184.876 24.0235 184.495 24.221 184.155 24.5206C183.744 25.0044 183.277 25.9656 182.756 27.4041C182.233 28.8426 181.693 30.5017 181.134 32.3846C180.574 34.2708 180.024 36.2557 179.481 38.346C178.941 40.4363 178.408 42.3751 177.885 44.1658C177.361 46.108 176.792 48.1225 176.176 50.2128C175.561 52.3031 175.018 54.2518 174.553 56.0623C174.086 57.8727 173.73 59.4594 173.49 60.8189C173.247 62.1817 173.2 63.1067 173.349 63.5905C173.461 63.8901 173.721 64.0843 174.132 64.1798C174.544 64.272 174.916 64.318 175.251 64.318L175.027 65.1015H164L164.28 64.318L164.277 64.3147Z" fill="#FAF5F3"/>
<path d="M201.78 41.868C202.04 40.7126 202.181 39.7054 202.201 38.8462C202.221 37.9871 202.099 37.2497 201.839 36.6341C201.579 36.0186 201.194 35.5512 200.69 35.2351C200.186 34.9191 199.561 34.7414 198.814 34.7019C197.471 34.6262 196.19 35.0574 194.979 35.989C193.764 36.9205 192.645 38.1056 191.621 39.5441C190.594 40.9826 189.699 42.5593 188.935 44.2743C188.171 45.9893 187.526 47.6155 187.003 49.1429C186.519 50.7097 186.098 52.3622 185.742 54.097C185.387 55.8317 185.173 57.4282 185.097 58.8832C185.021 60.3382 185.143 61.5331 185.459 62.4646C185.775 63.3962 186.345 63.8636 187.167 63.8636C187.99 63.8636 189.004 63.0703 190.331 61.4837C191.654 59.8971 193.093 57.8068 194.64 55.2129C196.187 52.619 197.764 49.663 199.37 46.3416C200.973 43.0202 202.412 39.6231 203.679 36.1535L202.951 40.3505C202.728 40.9464 202.326 41.9931 201.747 43.4843C201.167 44.9788 200.45 46.6576 199.591 48.5207C198.731 50.3871 197.754 52.3359 196.651 54.3702C195.548 56.4045 194.403 58.2512 193.208 59.9102C192.013 61.5726 190.792 62.9255 189.541 63.969C188.29 65.0125 187.085 65.4996 185.93 65.4239C184.659 65.3482 183.606 64.8545 182.766 63.9394C181.927 63.0242 181.311 61.8227 180.92 60.3283C180.528 58.8371 180.386 57.1089 180.498 55.1503C180.61 53.1917 181.022 51.1311 181.729 48.9651C182.401 46.7629 183.286 44.722 184.389 42.8358C185.489 40.9529 186.74 39.3104 188.139 37.9113C189.538 36.5123 191.048 35.4129 192.671 34.6097C194.294 33.8065 195.983 33.4247 197.737 33.4609C199.156 33.4971 200.348 33.7966 201.319 34.3562C202.29 34.9158 203.09 35.8112 203.725 37.0423L201.766 41.8549L201.78 41.868ZM204.13 62.4679C203.419 63.439 202.675 64.1467 201.892 64.5944C201.108 65.0421 200.331 65.2659 199.568 65.2659C198.804 65.2659 198.149 65.052 197.609 64.6207C197.069 64.1928 196.677 63.5839 196.434 62.8004C196.19 62.017 196.22 61.0854 196.519 60.0024L197.918 54.5183L203.235 36.5518C203.57 35.2088 203.886 33.9316 204.186 32.7169C204.485 31.5056 204.746 30.4028 204.969 29.4153C205.193 28.4278 205.351 27.5884 205.447 26.8971C205.539 26.2058 205.568 25.7318 205.529 25.4685C205.453 25.2446 205.295 25.1129 205.052 25.0767C204.808 25.0405 204.538 25.0504 204.239 25.1031C203.939 25.159 203.649 25.2051 203.37 25.2446C203.09 25.2808 202.836 25.2644 202.612 25.1887L203.172 24.4612C203.732 24.3855 204.377 24.2736 205.104 24.1254C205.832 23.9773 206.579 23.816 207.343 23.6481C208.106 23.4802 208.864 23.3321 209.611 23.2004C210.358 23.0688 211.046 23.0029 211.681 23.0029C210.187 28.3389 208.696 33.6485 207.204 38.9285C205.71 44.2085 204.275 49.5543 202.896 54.966C202.672 55.8251 202.448 56.6448 202.224 57.4282C202 58.2117 201.822 58.9392 201.691 59.6107C201.559 60.2822 201.487 60.8714 201.467 61.3751C201.447 61.8787 201.477 62.2803 201.549 62.5798C201.809 63.0275 202.138 63.0835 202.53 62.7477C202.922 62.412 203.304 61.9445 203.679 61.3487C204.051 60.7529 204.37 60.1374 204.63 59.5021C204.89 58.8667 205.042 58.4586 205.078 58.2709L205.749 58.6626C205.378 60.2295 204.834 61.5002 204.127 62.4679H204.13Z" fill="#FAF5F3"/>
<path d="M226.323 38.007C226.303 37.4836 226.201 36.9899 226.014 36.5224C225.826 36.055 225.53 35.6633 225.118 35.3473C224.707 35.0313 224.147 34.8897 223.439 34.9259C222.656 35.0016 221.919 35.2913 221.227 35.7949C220.536 36.2986 219.874 36.9602 219.239 37.7832C218.604 38.6061 218.018 39.5179 217.475 40.5252C216.932 41.5325 216.448 42.5694 216.02 43.6326C215.592 44.6959 215.207 45.713 214.871 46.6841C214.535 47.6552 214.272 48.4946 214.088 49.2023C213.528 51.1445 213.209 52.9714 213.136 54.6864C213.061 56.4047 213.228 57.8761 213.64 59.1072C214.051 60.3384 214.683 61.2732 215.543 61.9052C216.402 62.5406 217.501 62.7644 218.844 62.5768C219.815 62.4286 220.767 62.083 221.698 61.5399C222.63 61 223.509 60.3351 224.328 59.5516C225.148 58.7682 225.905 57.909 226.596 56.9775C227.288 56.0459 227.893 55.111 228.417 54.1795L229.424 54.3473C228.976 55.3941 228.351 56.5594 227.548 57.8465C226.744 59.1336 225.763 60.3482 224.608 61.4839C223.449 62.6229 222.106 63.5939 220.579 64.3938C219.048 65.197 217.369 65.5986 215.543 65.5986C213.788 65.6348 212.323 65.2629 211.148 64.4794C209.973 63.696 209.094 62.5866 208.518 61.1481C207.939 59.7129 207.669 57.9848 207.705 55.9702C207.741 53.9556 208.097 51.6975 208.768 49.1957C209.403 46.8816 210.233 44.765 211.26 42.8426C212.287 40.9202 213.462 39.2809 214.785 37.9181C216.109 36.5553 217.537 35.4921 219.068 34.7284C220.599 33.9647 222.166 33.5796 223.769 33.5796C225.931 33.5796 227.66 34.0733 228.947 35.0642C230.234 36.0517 231.017 37.2203 231.297 38.5633C231.577 39.9064 231.323 41.2494 230.54 42.5925C229.756 43.9355 228.338 44.9428 226.287 45.6143C224.944 46.0982 223.703 46.4998 222.564 46.8191C221.425 47.1351 220.306 47.4248 219.206 47.6881C218.107 47.9482 216.978 48.2016 215.819 48.4452C214.66 48.6888 213.373 48.9587 211.958 49.2583L212.461 48.0831L220.635 45.8447C221.53 45.6209 222.304 45.3049 222.959 44.8934C223.611 44.4819 224.164 43.998 224.611 43.4384C225.059 42.8788 225.415 42.2534 225.675 41.5621C225.935 40.8709 226.122 40.1335 226.234 39.3501C226.31 38.9781 226.336 38.5304 226.32 38.007H226.323Z" fill="#FAF5F3"/>
<path d="M232.956 63.979C232.133 63.0836 231.557 61.8986 231.221 60.4239C230.885 58.9492 230.793 57.2342 230.941 55.2756C231.09 53.3169 231.501 51.2563 232.173 49.0903C232.956 46.6281 233.943 44.416 235.138 42.4574C236.333 40.4988 237.676 38.8562 239.168 37.5329C240.659 36.2096 242.282 35.2023 244.036 34.5111C245.791 33.8198 247.598 33.4939 249.464 33.5301C249.876 33.4939 250.481 33.5104 251.285 33.5861C252.088 33.6618 252.937 33.8001 253.832 34.0074C254.728 34.2115 255.577 34.5111 256.38 34.9028C257.183 35.2945 257.809 35.8278 258.256 36.4993L255.738 45.5122C255.254 47.1548 254.777 48.7677 254.31 50.3544C253.842 51.941 253.424 53.4815 253.049 54.9727C252.526 56.691 252.134 58.1558 251.874 59.3672C251.614 60.5786 251.538 61.5233 251.65 62.1948C251.686 62.5668 251.782 62.7841 251.93 62.84C252.078 62.896 252.19 62.9223 252.265 62.9223C252.526 62.9223 252.835 62.7084 253.19 62.2771C253.546 61.8492 253.872 61.362 254.171 60.8222C254.471 60.2823 254.721 59.7688 254.929 59.2816C255.133 58.7977 255.254 58.4784 255.294 58.3303L256.021 58.6661C255.686 59.9367 255.264 60.9901 254.761 61.8295C254.257 62.6689 253.734 63.3338 253.194 63.8177C252.654 64.3016 252.111 64.6472 251.571 64.8546C251.028 65.0587 250.534 65.1805 250.086 65.22C248.519 65.3319 247.456 64.7986 246.897 63.6235C246.337 62.4483 246.337 60.8518 246.897 58.8372L251.541 42.9413C251.617 42.7537 251.68 42.5594 251.735 42.3521C251.791 42.148 251.838 41.9505 251.874 41.7628C252.358 40.1597 252.687 38.8727 252.855 37.9016C253.023 36.9305 252.937 36.1866 252.601 35.6632C252.341 35.2155 251.949 34.9357 251.426 34.8238C250.903 34.7119 250.307 34.6362 249.635 34.6C248.029 34.5637 246.604 34.9818 245.353 35.8607C244.102 36.7363 242.983 37.8753 241.995 39.2743C241.008 40.6733 240.148 42.2599 239.421 44.0309C238.694 45.8051 238.048 47.5498 237.489 49.2648C236.965 50.8317 236.518 52.4545 236.146 54.1333C235.774 55.8121 235.54 57.3625 235.445 58.778C235.352 60.1967 235.435 61.3719 235.698 62.3035C235.958 63.235 236.501 63.7222 237.321 63.7584C238.364 63.8704 239.549 63.1988 240.876 61.7439C242.199 60.2889 243.572 58.3501 244.991 55.924C246.409 53.498 247.835 50.7197 249.273 47.5827C250.708 44.4489 252.081 41.2394 253.388 37.9543L252.269 43.0466C251.857 43.942 251.354 45.1369 250.758 46.6281C250.159 48.1225 249.487 49.6993 248.743 51.3583C247.996 53.0174 247.167 54.6995 246.251 56.3947C245.336 58.0933 244.339 59.6141 243.256 60.9571C242.173 62.3002 241.044 63.393 239.869 64.2324C238.694 65.0718 237.433 65.4537 236.09 65.3813C234.819 65.3451 233.776 64.8776 232.956 63.9823V63.979Z" fill="#FAF5F3"/>
<path d="M266.374 61.7408C265.89 62.5638 265.357 63.2353 264.777 63.7554C264.198 64.2788 263.629 64.6409 263.069 64.8482C262.509 65.0523 262.026 65.1577 261.614 65.1577C261.166 65.1577 260.709 65.0918 260.241 64.9602C259.774 64.8285 259.366 64.5586 259.01 64.1504C258.655 63.7389 258.405 63.153 258.253 62.386C258.105 61.6223 258.161 60.6052 258.421 59.3345C258.609 58.4754 258.954 57.1225 259.458 55.2758C259.962 53.4291 260.551 51.329 261.222 48.9786C261.894 46.6283 262.595 44.1661 263.323 41.5886C264.05 39.0145 264.702 36.6082 265.281 34.3665C265.86 32.1281 266.325 30.1958 266.68 28.573C267.036 26.9501 267.174 25.9132 267.101 25.4655C266.99 25.2417 266.822 25.11 266.598 25.0738C266.374 25.0376 266.121 25.0376 265.841 25.0738C265.561 25.11 265.271 25.1561 264.972 25.2121C264.672 25.268 264.412 25.2582 264.188 25.1857L264.636 24.4023C265.232 24.3266 265.903 24.2147 266.651 24.0665C267.398 23.9184 268.161 23.767 268.945 23.6189C269.728 23.4707 270.512 23.3292 271.295 23.1975C272.079 23.0658 272.806 23 273.478 23L265.36 53.2283C264.764 55.2429 264.241 57.0435 263.793 58.6301C263.346 60.2167 263.178 61.382 263.29 62.1292C263.326 62.4288 263.421 62.6131 263.569 62.6888C263.718 62.7646 263.849 62.8008 263.961 62.8008C264.221 62.8008 264.521 62.6033 264.856 62.2115C265.192 61.8198 265.508 61.3623 265.808 60.8389C266.107 60.3155 266.367 59.802 266.591 59.2983C266.815 58.7947 266.963 58.4128 267.039 58.1495L267.599 58.6531C267.263 59.8843 266.851 60.9113 266.367 61.7309L266.374 61.7408Z" fill="#FAF5F3"/>
<path d="M197.358 81.0206C194.218 80.6497 191.094 80.2318 188.747 77.6312C187.451 78.9979 186.002 80.021 184.272 80.6067C184.015 80.6926 183.757 80.7902 183.495 80.8644C182.492 81.1456 181.539 81.4424 180.645 82.0945C179.141 83.1957 177.423 83.5354 175.525 82.403C174.241 84.3554 172.944 86.2728 171.706 88.2291C171.331 88.8227 171.148 89.5333 170.797 90.1464C170.664 90.3768 170.308 90.4823 170.055 90.6424C169.914 90.2987 169.563 89.8575 169.668 89.6232C170.25 88.3228 170.894 87.0459 171.605 85.812C172.144 84.8748 172.819 84.0196 173.589 82.9028C171.968 83.5471 170.496 84.9997 169.168 83.0785C168.333 83.3167 167.555 83.6955 166.763 83.7189C165.861 83.7463 165.349 83.0824 165.345 82.2194C164.31 82.7154 163.338 83.2503 162.315 83.6408C161.921 83.7931 161.28 83.7736 160.98 83.5393C160.714 83.3362 160.687 82.7193 160.702 82.2897C160.714 81.9812 160.909 81.6181 161.136 81.3916C161.667 80.8488 161.96 80.3099 161.811 79.4938C161.753 79.1697 162.096 78.4981 162.358 78.4356C163.006 78.2872 163.44 78.7597 163.389 79.4196C163.346 79.9468 163.17 80.4896 162.932 80.9621C162.694 81.4424 162.311 81.8485 162.12 82.4889C162.538 82.3366 163.022 82.2741 163.358 82.0164C164.463 81.1768 165.501 80.2436 166.603 79.3962C166.837 79.2166 167.223 79.2322 167.54 79.158C167.528 79.4782 167.634 79.8687 167.485 80.103C167.052 80.7942 166.556 81.4346 166.833 82.4069C168.27 82.4069 169.16 81.4424 170.101 80.5677C170.375 80.3138 170.601 79.9936 170.914 79.814C171.117 79.693 171.429 79.7633 171.695 79.7515C171.675 80.0483 171.741 80.3959 171.613 80.6301C171.261 81.2666 170.816 81.8446 170.429 82.4616C170.386 82.5318 170.48 82.688 170.504 82.7935C172.421 82.8442 174.963 81.2706 175.697 79.6032C175.873 79.2048 176.017 78.7831 176.244 78.42C176.353 78.2442 176.63 78.0607 176.814 78.0763C177.013 78.0958 177.361 78.3614 177.353 78.4902C177.29 79.1658 177.146 79.8296 177.005 80.4935C176.927 80.8566 176.802 81.2081 176.697 81.5634C177.091 81.661 177.49 81.8524 177.88 81.8368C178.368 81.8172 178.86 81.6728 179.325 81.5009C179.895 81.2862 180.547 81.1144 180.168 80.1889C180.082 79.978 180.438 79.4352 180.723 79.279C180.945 79.158 181.379 79.3689 181.695 79.4821C181.976 79.5836 182.261 79.9234 182.488 79.8804C184.557 79.4548 186.44 78.623 187.881 77.0337C188.15 76.7369 188.298 76.2098 188.275 75.7998C188.169 73.9332 188.861 72.4025 190.11 71.0865C190.641 70.5281 191.008 70.6414 191.196 71.3872C191.649 73.1835 190.821 74.6751 189.938 76.1043C189.607 76.6393 189.56 77.065 189.977 77.4086C190.684 77.9904 191.418 78.6191 192.25 78.9588C196.018 80.5052 200.033 80.6067 204 80.4857M190.454 72.6719C190.368 72.6133 190.286 72.5548 190.196 72.4962C189.489 73.2225 189.251 74.1363 189.185 75.1125C189.286 75.1515 189.388 75.1906 189.485 75.2335C189.81 74.3823 190.13 73.5271 190.454 72.6719Z" fill="#F99800"/>
<path d="M158.117 78.2954C156.649 78.7561 155.204 79.3145 153.712 79.6621C149.792 80.568 145.879 81.6263 141.791 81.2748C139.831 81.1069 138.444 80.0096 138.28 78.5062C138.249 78.2134 138.374 77.9049 138.655 77.5769C138.78 77.7643 138.983 77.9439 139.014 78.147C139.292 79.9198 140.904 80.4587 142.49 80.4548C146.707 80.4431 150.842 79.787 154.876 78.5297C155.884 78.2173 156.875 77.8541 157.891 77.5808C158.246 77.487 158.656 77.5964 159.043 77.612C158.992 78.0533 159.074 78.5687 158.867 78.9201C158.109 80.2049 157.243 81.4232 156.446 82.6845C154.743 85.3828 153.01 88.0616 151.381 90.8067C149.526 93.9345 147.754 97.1132 145.977 100.284C144.665 102.627 143.404 105.001 142.103 107.356C141.881 107.762 141.545 108.106 141.326 108.512C141.084 108.965 140.775 109.433 140.291 109.015C140.006 108.769 139.803 108.078 139.944 107.758C140.338 106.864 140.889 106.028 141.451 105.224C142.638 103.525 143.962 101.912 145.067 100.159C146.555 97.8004 147.836 95.313 149.296 92.9349C151.873 88.7332 154.521 84.5745 157.137 80.3962C157.531 79.7675 157.899 79.1271 158.281 78.4906C158.227 78.4242 158.176 78.3617 158.121 78.2954H158.117Z" fill="#F99800"/>
<path d="M142.255 73.7852C143.009 73.3283 143.724 72.7855 144.52 72.4341C146.965 71.3641 149.394 70.2356 151.912 69.3843C154.22 68.6073 156.645 68.4784 159.07 69.0798C161.573 69.7006 162.983 72.0436 162.194 74.492C162.116 74.738 161.694 74.8707 161.436 75.0582C161.311 74.7575 160.991 74.3709 161.085 74.1718C162.362 71.4188 159.8 69.6264 157.629 69.4351C154.208 69.1344 151.049 70.0482 147.988 71.4305C146.125 72.274 144.282 73.1643 142.431 74.039C142.373 73.9531 142.314 73.8672 142.255 73.7813V73.7852Z" fill="#F99800"/>
<path d="M84.2935 71.0419C85.2658 69.8939 86.2226 68.7302 87.2183 67.6017C87.519 67.262 87.7455 66.6762 88.5382 66.9457C87.9173 67.7345 87.3667 68.4842 86.7653 69.191C85.301 70.9092 83.6726 72.5063 82.3606 74.3299C80.2168 77.3132 78.6861 80.5738 79.1507 84.4202C79.4085 86.5444 80.7439 87.3528 82.755 86.6264C85.5899 85.6034 88.0891 84.0023 90.3969 82.0967C91.2794 81.3665 92.1229 80.5855 92.9351 79.7772C93.1889 79.5234 93.2983 79.1134 93.4466 78.7619C93.9191 77.6334 94.2628 77.446 95.4655 77.3796C97.8944 77.2429 100.327 77.0633 102.596 76.0636C102.74 76.0012 102.904 75.8957 102.975 75.7669C103.533 74.7555 103.974 73.6699 104.642 72.7445C105.103 72.1041 105.841 71.655 106.493 71.1669C106.657 71.0458 107.071 71.0068 107.172 71.1122C107.329 71.2801 107.438 71.655 107.356 71.8541C106.786 73.2443 106.224 74.6383 105.536 75.9699C105.134 76.7509 104.498 77.4147 103.998 78.1489C103.908 78.2777 103.896 78.5901 103.99 78.6878C104.189 78.8947 104.47 79.129 104.728 79.1407C105.122 79.1563 105.564 79.0704 105.915 78.8869C107.407 78.1254 108.922 77.3796 109.871 75.8879C109.992 75.6966 110.168 75.5052 110.367 75.4154C110.593 75.31 110.87 75.3217 111.128 75.2788C111.062 75.5599 111.062 75.8879 110.913 76.1105C110.57 76.6142 110.078 77.0282 109.789 77.5514C109.508 78.063 109.402 78.6721 109.168 79.4141C110.499 79.2305 111.417 78.6995 112.304 78.0981C112.983 77.6373 113.639 77.1453 114.299 76.6572C114.666 76.3878 115.014 76.2316 115.381 76.7197C115.014 77.6725 114.139 78.4574 114.24 79.9022C115.388 79.2501 116.396 78.7229 117.353 78.1176C118.001 77.7076 118.563 77.1648 119.2 76.7314C119.383 76.6064 119.684 76.6455 119.93 76.6064C119.922 76.8642 120 77.1531 119.902 77.3679C119.285 78.7112 118.633 80.0389 117.989 81.3704C118.052 81.4173 118.11 81.4641 118.173 81.511C118.688 81.0463 119.164 80.5231 119.723 80.1248C121.425 78.9025 123.042 77.446 124.932 76.6299C126.178 76.091 127.115 75.2709 128.212 74.6071C129.145 74.0409 130.145 73.5684 131.16 73.1662C131.918 72.8655 132.742 72.7327 133.609 72.5024C133.73 72.6664 133.874 72.8577 134.14 73.2092C133.57 73.3849 133.113 73.5957 132.636 73.6621C130.266 74.0097 128.38 75.2319 126.76 76.911C126.584 77.0945 126.529 77.4655 126.537 77.7467C126.592 79.7811 125.697 81.4017 124.354 82.8231C124.167 83.0222 123.85 83.0964 123.589 83.2331C123.448 82.9441 123.151 82.6239 123.198 82.3662C123.343 81.5422 123.534 80.7027 123.862 79.9373C124.272 78.9806 124.834 78.0864 125.358 77.118C125.19 77.1687 124.991 77.1844 124.842 77.2742C122.074 78.9494 119.41 80.7847 117.466 83.4205C116.689 84.4748 116.236 85.7674 115.572 86.9115C114.764 88.3017 113.912 89.6723 113.018 91.0117C112.846 91.2733 112.171 91.5466 112.116 91.4842C111.827 91.1444 111.429 90.6524 111.495 90.2971C111.632 89.5942 111.94 88.864 112.37 88.2899C113.35 86.9779 114.479 85.7752 115.49 84.4827C116.005 83.8227 116.478 83.1081 116.818 82.3467C117.403 81.0229 117.868 79.6484 118.43 78.1684C117.876 78.594 117.454 78.9806 116.974 79.2774C116.298 79.6952 115.611 80.1091 114.881 80.4098C113.686 80.8979 113.01 80.3083 113.229 79.0431C113.264 78.8244 113.33 78.6136 113.413 78.2699C112.862 78.676 112.452 79.0821 111.956 79.3164C111.206 79.6718 110.417 79.9881 109.609 80.1638C108.656 80.3708 108.399 79.6249 108.227 78.801C107.536 79.1056 106.895 79.4102 106.235 79.6679C104.818 80.2302 104.162 80.1443 102.986 79.2852C101.909 80.1052 100.835 80.9292 99.7492 81.7375C99.2728 82.0889 98.7456 82.4872 98.1677 81.9757C97.7069 81.5696 97.7616 80.8237 98.3083 80.2419C99.0619 79.4375 99.878 78.6917 100.667 77.9263C100.827 77.774 100.999 77.6373 101.1 77.3484C100.222 77.5241 99.347 77.7349 98.4606 77.8716C97.5273 78.0161 96.5823 78.0864 95.6451 78.2074C95.4577 78.2309 95.2039 78.2973 95.1219 78.43C94.2823 79.8007 93.4857 81.1947 92.6422 82.5614C92.4665 82.8465 92.1619 83.0495 91.9198 83.2916C91.7636 82.9519 91.6113 82.6122 91.4122 82.1748C90.8655 82.6122 90.2446 83.1472 89.5886 83.6314C87.3315 85.291 85.0159 86.8529 82.2708 87.6027C80.6034 88.0596 79.0609 87.1888 78.5025 85.5409C77.8973 83.7641 78.0964 81.9991 78.5299 80.2302C78.565 80.0818 78.6158 79.9373 78.6431 79.7889C78.6509 79.7499 78.608 79.703 78.5806 79.6406C77.1163 81.5071 75.6558 83.3658 74.2071 85.2129C73.4261 84.9317 73.4574 84.4163 73.7971 83.9281C74.8553 82.3935 75.9097 80.8511 77.0577 79.3867C78.9828 76.9344 81.1579 74.693 82.5246 71.8112C83.7546 69.2222 85.2463 66.7582 86.613 64.2356C86.8825 63.7397 87.0777 63.2047 87.3589 62.7205C87.476 62.5175 87.7259 62.3964 87.9173 62.2363C87.9954 62.498 88.1945 62.7986 88.1281 63.0212C87.9251 63.7046 87.6752 64.3879 87.3394 65.0166C86.3709 66.8207 85.3479 68.5935 84.3521 70.3859C84.2584 70.5538 84.2037 70.749 84.1334 70.9287C84.192 70.9638 84.2506 71.0029 84.313 71.038L84.2935 71.0419ZM99.5227 80.6246C100.964 80.199 102.682 78.5394 102.506 77.7662C101.413 78.6643 100.132 79.2852 99.5227 80.6246ZM106.149 72.4789C105.236 73.4005 104.482 74.3455 104.302 75.681C104.705 75.5052 105.122 75.2905 105.302 74.9507C105.689 74.2166 105.95 73.4161 106.263 72.6429C106.266 72.6273 106.235 72.6039 106.153 72.4789H106.149ZM112.3 90.4064L112.526 90.5431C113.311 89.2193 114.1 87.8955 114.885 86.5679C114.818 86.5288 114.756 86.4898 114.689 86.4507C113.783 87.7042 112.592 88.7859 112.3 90.4064ZM124.018 81.6477C124.963 81.0073 125.686 79.3282 125.49 78.3324C124.967 79.5117 124.491 80.5777 124.018 81.6477Z" fill="#F99800"/>
<path d="M84.5512 82.7645C84.5084 82.804 84.4096 82.9555 84.301 82.9653C84.166 82.9785 83.9619 82.9094 83.8895 82.8073C83.7216 82.5604 83.5636 82.2839 83.5044 81.9976C83.4715 81.8231 83.6327 81.6058 83.7052 81.4116C83.9093 81.5005 84.2154 81.5334 84.2911 81.6848C84.4392 81.9811 84.4557 82.3399 84.5479 82.7678L84.5512 82.7645Z" fill="black"/>
<path d="M67.5 0.99707H69.9425L72.0097 5.57263L74.0835 0.99707H76.526V8.94998H74.2185V4.98999L72.7076 8.49901H71.3185L69.8075 4.98999V8.94998H67.5V0.99707Z" fill="#F69601"/>
<path d="M83.3038 8.94998L86.3618 0.99707H89.1499L92.2014 8.94998H89.7063L89.1894 7.62011H86.3124L85.7956 8.94998H83.3005H83.3038ZM86.8424 5.85572H88.6628L87.7542 3.19597L86.8391 5.85572H86.8424Z" fill="#F69601"/>
<path d="M99.9831 6.06307C100.451 6.75435 101.109 7.13619 101.84 7.13619C102.35 7.13619 102.735 6.91235 102.735 6.61609C102.735 6.24083 102.307 6.1355 101.26 5.81949C99.9469 5.42777 98.6006 4.91096 98.6006 3.31116C98.6006 1.8134 100.075 0.881836 101.639 0.881836C103.202 0.881836 104.091 1.58298 104.766 2.62647L103.179 3.72592C102.863 3.20582 102.294 2.80752 101.616 2.80752C101.234 2.80752 100.862 2.96552 100.862 3.30458C100.862 3.67325 101.336 3.8543 101.935 4.02548C103.726 4.52912 104.996 5.10188 104.996 6.61938C104.996 8.2521 103.328 9.06846 101.823 9.06846C100.319 9.06846 99.0186 8.39036 98.3142 7.22836L99.9831 6.06307Z" fill="#F69601"/>
<path d="M111.182 0.99707H118.111V2.9063H115.787V8.94998H113.45V2.9063H111.182V0.99707Z" fill="#F69601"/>
<path d="M124.994 0.99707H130.804V2.87009H127.325V3.96954H130.376V5.83926H127.325V7.08026H130.863V8.94998H124.994V0.99707Z" fill="#F69601"/>
<path d="M138.095 8.94998V0.99707H142.108C143.648 0.99707 144.906 2.07348 144.906 3.63378C144.906 4.71677 144.327 5.54958 143.477 5.98081L145.087 8.95657H142.598L141.199 6.28694H140.419V8.95328H138.095V8.94998ZM140.419 2.88655V4.4666H141.713C142.21 4.4666 142.526 4.06829 142.526 3.63048C142.526 3.21572 142.226 2.88655 141.713 2.88655H140.419Z" fill="#F69601"/>
<path d="M151.559 4.96021C151.559 2.61647 153.316 0.878418 155.828 0.878418C157.326 0.878418 158.646 1.67503 159.288 2.86994L157.589 4.04839C157.273 3.446 156.753 2.92261 155.825 2.92261C154.659 2.92261 153.922 3.74884 153.922 4.96021C153.922 6.17158 154.689 7.02086 155.825 7.02086C156.634 7.02086 157.276 6.6061 157.698 5.8852L159.367 7.05048C158.787 8.21577 157.345 9.06505 155.825 9.06505C153.313 9.06505 151.555 7.30395 151.555 4.96021H151.559Z" fill="#F69601"/>
<path d="M172.553 8.94998H166.398V0.99707H168.735V7.08684H172.553V8.94998Z" fill="#F69601"/>
<path d="M178.498 8.94998L181.556 0.99707H184.345L187.396 8.94998H184.901L184.384 7.62011H181.507L180.99 8.94998H178.495H178.498ZM182.034 5.85572H183.854L182.946 3.19597L182.03 5.85572H182.034Z" fill="#F69601"/>
<path d="M195.174 6.06307C195.642 6.75435 196.3 7.13619 197.031 7.13619C197.541 7.13619 197.926 6.91235 197.926 6.61609C197.926 6.24083 197.498 6.1355 196.452 5.81949C195.138 5.42777 193.792 4.91096 193.792 3.31116C193.792 1.8134 195.267 0.881836 196.83 0.881836C198.394 0.881836 199.283 1.58298 199.957 2.62647L198.371 3.72592C198.055 3.20582 197.485 2.80752 196.807 2.80752C196.425 2.80752 196.053 2.96552 196.053 3.30458C196.053 3.67325 196.527 3.8543 197.127 4.02548C198.917 4.52912 200.188 5.10188 200.188 6.61938C200.188 8.2521 198.519 9.06846 197.015 9.06846C195.51 9.06846 194.21 8.39036 193.506 7.22836L195.174 6.06307Z" fill="#F69601"/>
<path d="M208.608 6.06307C209.076 6.75435 209.734 7.13619 210.465 7.13619C210.975 7.13619 211.36 6.91235 211.36 6.61609C211.36 6.24083 210.932 6.1355 209.885 5.81949C208.572 5.42777 207.226 4.91096 207.226 3.31116C207.226 1.8134 208.7 0.881836 210.264 0.881836C211.828 0.881836 212.716 1.58298 213.391 2.62647L211.805 3.72592C211.489 3.20582 210.919 2.80752 210.241 2.80752C209.859 2.80752 209.487 2.96552 209.487 3.30458C209.487 3.67325 209.961 3.8543 210.56 4.02548C212.351 4.52912 213.622 5.10188 213.622 6.61938C213.622 8.2521 211.953 9.06846 210.448 9.06846C208.944 9.06846 207.644 8.39036 206.939 7.22836L208.608 6.06307Z" fill="#F69601"/>
</g>
<defs>
<clipPath id="clip0_1_49">
<rect width="273" height="107" fill="white" transform="translate(0.5)"/>
</clipPath>
</defs>
</svg>
